<svg width="22" height="19" viewBox="0 0 22 19" fill="none" xmlns="http://www.w3.org/2000/svg">
<path d="M14.9618 16.0684L10.9354 16.5111L6.94971 16.0684C8.83498 16.0684 9.49631 14.7188 9.62512 12.9331C9.64238 12.6967 9.64991 12.4528 9.64991 12.2036V12.0349C10.0678 12.1248 10.5171 12.1731 11 12.1731C11.4657 12.1731 11.9004 12.1283 12.3058 12.0447V12.2036C12.3058 12.4559 12.3129 12.7029 12.3297 12.9419C12.4519 14.7232 13.0796 16.0684 14.9618 16.0684Z" fill="#FAD207"/>
<path d="M16.4668 17.006V18.503L10.9557 18.9457L5.44464 18.503V17.006C5.44464 16.4881 5.86428 16.0684 6.38219 16.0684H15.5292C15.952 16.0684 16.3092 16.3482 16.426 16.7324C16.4526 16.8192 16.4668 16.9108 16.4668 17.006Z" fill="#FAD207"/>
<path d="M16.426 16.7324H6.55128C6.30693 16.7324 6.10863 16.9307 6.10863 17.1751V18.503H5.44464V17.006C5.44464 16.4881 5.86428 16.0684 6.38219 16.0684H15.5292C15.952 16.0684 16.3092 16.3482 16.426 16.7324Z" fill="#FAA515"/>
<path d="M12.3298 12.9419C11.9039 13.019 11.4577 13.0584 11 13.0584C10.5264 13.0584 10.0647 13.0163 9.62512 12.9331C9.64239 12.6967 9.64991 12.4528 9.64991 12.2036V12.0349L11 11.9823L12.3058 12.0447V12.2036C12.3058 12.4559 12.3129 12.7029 12.3298 12.9419Z" fill="#FAA515"/>
<path d="M22 4.49296C22 7.7757 19.329 10.4467 16.0463 10.4467H15.1831C15.5704 10.0461 15.9029 9.59502 16.1884 9.1165C18.4499 9.04789 20.3082 7.34854 20.6247 5.15695H17.6106C17.704 4.67489 17.77 4.22427 17.8165 3.82898H21.336C21.7025 3.82898 22 4.12644 22 4.49296Z" fill="#FAD207"/>
<path d="M17.2893 8.94916C17.1813 9.16385 17.0675 9.37101 16.9484 9.5702C16.7647 9.87829 16.5673 10.1687 16.3579 10.4383C16.2548 10.444 16.1508 10.4467 16.0463 10.4467H15.1831L15.2812 9.81079L16.1883 9.11648C16.1884 9.11648 16.9374 9.04743 17.2893 8.94916Z" fill="#FAA515"/>
<path d="M18.7075 3.82898C18.7035 3.86306 18.6995 3.89759 18.6956 3.93256C18.6469 4.34512 18.5853 4.75634 18.5114 5.15695H17.6106L17.2834 4.49296L17.8164 3.82898H18.7075Z" fill="#FAA515"/>
<path d="M22 4.49296C22 7.67123 19.4963 10.2758 16.3579 10.4383C16.5673 10.1687 16.7647 9.87832 16.9484 9.57023C17.0675 9.37103 17.1812 9.16387 17.2893 8.94918C19.0311 8.4627 20.3613 6.98025 20.6247 5.15695H18.5114C18.5854 4.75634 18.6469 4.34512 18.6956 3.93256C18.6996 3.89759 18.7035 3.86306 18.7075 3.82898H21.336C21.7025 3.82898 22 4.12644 22 4.49296Z" fill="#FAD207"/>
<path d="M6.8169 10.4467H5.95372C2.67099 10.4467 0 7.7757 0 4.49296C0 4.12644 0.297465 3.82898 0.663984 3.82898H4.18354C4.23002 4.22427 4.29598 4.67489 4.38938 5.15695H1.37533C1.69183 7.34854 3.5501 9.04789 5.81163 9.1165C6.09714 9.59502 6.42958 10.0461 6.8169 10.4467Z" fill="#FAD207"/>
<path d="M4.38938 5.15695H3.48858C3.41465 4.7559 3.35312 4.34467 3.30443 3.93256C3.30045 3.89759 3.29646 3.86306 3.29248 3.82898H4.18355L4.71894 4.50863L4.38938 5.15695Z" fill="#FAA515"/>
<path d="M6.81691 10.4467H5.95373C5.84927 10.4467 5.74524 10.444 5.6421 10.4383C5.43273 10.1687 5.2353 9.87829 5.0516 9.5702C4.93253 9.37101 4.81876 9.16385 4.71075 8.94916C5.06267 9.04743 5.81164 9.11648 5.81164 9.11648L6.63786 9.70096L6.81691 10.4467Z" fill="#FAA515"/>
<path d="M17.9276 2.25754C17.9276 2.25754 17.9276 2.59396 17.8842 3.14285C17.8683 3.3447 17.8461 3.57577 17.8165 3.82897C17.77 4.22426 17.704 4.67488 17.6106 5.15693C17.3681 6.40124 16.9413 7.85536 16.1884 9.11649C15.9029 9.595 15.5704 10.0461 15.1831 10.4467C14.4421 11.2134 13.501 11.7977 12.3058 12.0447C11.9004 12.1283 11.4657 12.173 11 12.173C10.5171 12.173 10.0678 12.1248 9.64991 12.0349C8.47599 11.7835 7.54907 11.2041 6.81692 10.4467C6.42959 10.0461 6.09716 9.595 5.81164 9.11649C5.05869 7.85536 4.63197 6.40124 4.38939 5.15693C4.29599 4.67488 4.23003 4.22426 4.18356 3.82897C4.1539 3.57577 4.13176 3.3447 4.11583 3.14285C4.07245 2.59396 4.07245 2.25754 4.07245 2.25754H17.9276Z" fill="#FAD207"/>
<path d="M17.9276 2.25754L10.7146 1.81488L4.95776 2.25754H4.07245C4.07245 2.25754 4.07245 2.59395 4.11583 3.14285C4.13176 3.3447 4.1539 3.57577 4.18356 3.82896C4.23003 4.22426 4.29599 4.67488 4.38939 5.15693C4.63197 6.40124 5.05869 7.85536 5.81164 9.11649C6.09716 9.595 6.42959 10.0461 6.81692 10.4467C7.54907 11.2041 8.47599 11.7835 9.64991 12.0349C10.0678 12.1248 10.5171 12.173 11 12.173C11.1505 12.173 11.2975 12.1686 11.4413 12.1593C11.124 12.1389 10.8221 12.0964 10.5352 12.0349C9.3613 11.7835 8.43438 11.2041 7.70223 10.4467C7.3149 10.0461 6.98247 9.595 6.69695 9.11649C5.944 7.85536 5.51728 6.40124 5.2747 5.15693C5.1813 4.67488 5.11535 4.22426 5.06887 3.82896C5.06856 3.82644 5.06829 3.82392 5.06798 3.8214C5.0258 3.45988 5.30927 3.14285 5.67322 3.14285H17.8842C17.9276 2.59395 17.9276 2.25754 17.9276 2.25754Z" fill="#FAA515"/>
<path d="M4.05028 0H17.9497C18.5731 0 19.0784 0.50538 19.0784 1.12877C19.0784 1.75217 18.5731 2.25755 17.9497 2.25755H4.05028C3.42689 2.25755 2.92151 1.75217 2.92151 1.12877C2.92151 0.50538 3.42689 0 4.05028 0Z" fill="#FAD207"/>
<path d="M4.93559 2.25755H4.05028C3.42702 2.25755 2.92151 1.75203 2.92151 1.12877C2.92151 0.817143 3.04811 0.534728 3.25217 0.330664C3.45624 0.1266 3.73865 0 4.05028 0H4.93559C4.62396 0 4.34155 0.1266 4.13748 0.330664C3.93342 0.534728 3.80682 0.817143 3.80682 1.12877C3.80682 1.75203 4.31233 2.25755 4.93559 2.25755Z" fill="#FAA515"/>
</svg>
